<svg xmlns="http://www.w3.org/2000/svg" width="35" height="32" viewBox="0 0 35 32">
  <path fill="#FFF" d="M17.8654,-0.0005 C19.4204,-0.0005 20.7774,0.8465 21.4994,2.1025 L21.4994,2.1025 L28.3304,13.9105 L34.9554,25.3615 L35.1654,25.7235 L35.1734,25.7395 C35.1754,25.7425 35.1764,25.7445 35.1774,25.7465 L35.1774,25.7465 L35.1834,25.7555 L35.1834,25.7555 L35.2214,25.8255 C35.2254,25.8305 35.2284,25.8355 35.2314,25.8415 C35.2434,25.8655 35.2554,25.8885 35.2674,25.9125 C35.2704,25.9155 35.2724,25.9195 35.2744,25.9235 C35.2884,25.9505 35.3014,25.9765 35.3134,26.0035 C35.3164,26.0095 35.3204,26.0155 35.3224,26.0225 C35.3344,26.0465 35.3464,26.0715 35.3574,26.0965 L35.3574,26.0965 L35.3614,26.1055 L35.3974,26.1875 C35.4004,26.1945 35.4034,26.2005 35.4064,26.2065 C35.4174,26.2345 35.4284,26.2615 35.4394,26.2895 L35.4394,26.2895 C35.4514,26.3195 35.4624,26.3475 35.4724,26.3755 C35.4754,26.3825 35.4774,26.3895 35.4804,26.3965 C35.4904,26.4245 35.5004,26.4535 35.5104,26.4815 C35.5114,26.4835 35.5114,26.4855 35.5124,26.4875 C35.5214,26.5145 35.5304,26.5415 35.5384,26.5695 C35.5414,26.5765 35.5424,26.5825 35.5454,26.5885 C35.5544,26.6185 35.5624,26.6465 35.5714,26.6755 L35.5714,26.6755 L35.5744,26.6875 C35.5814,26.7135 35.5884,26.7405 35.5954,26.7665 C35.5974,26.7735 35.5994,26.7805 35.6004,26.7865 C35.6084,26.8155 35.6154,26.8445 35.6224,26.8735 L35.6224,26.8735 L35.6254,26.8905 C35.6314,26.9155 35.6374,26.9425 35.6434,26.9685 C35.6444,26.9745 35.6454,26.9815 35.6464,26.9875 C35.6524,27.0175 35.6584,27.0465 35.6644,27.0765 L35.6644,27.0765 L35.6674,27.0955 L35.6804,27.1745 C35.6814,27.1805 35.6824,27.1855 35.6834,27.1915 C35.6874,27.2215 35.6914,27.2515 35.6954,27.2825 C35.6964,27.2895 35.6974,27.2955 35.6984,27.3025 C35.7024,27.3305 35.7054,27.3585 35.7084,27.3855 L35.7084,27.3855 L35.7094,27.3995 C35.7124,27.4295 35.7154,27.4605 35.7174,27.4925 C35.7184,27.4985 35.7184,27.5055 35.7194,27.5135 C35.7214,27.5425 35.7234,27.5725 35.7244,27.6005 C35.7254,27.6035 35.7254,27.6065 35.7254,27.6095 C35.7274,27.6405 35.7284,27.6715 35.7294,27.7045 L35.7294,27.7045 L35.730275,27.774125 L35.730275,27.774125 L35.7304,27.8225 C35.7304,30.1295 33.8564,31.9995 31.5444,31.9995 C31.1054,31.9995 30.6824,31.9325 30.2854,31.8075 L30.2854,31.8075 L18.5224,27.9275 C18.3164,27.8595 18.0954,27.8225 17.8654,27.8225 C17.6354,27.8225 17.4144,27.8595 17.2074,27.9275 L17.2074,27.9275 L5.4454,31.8075 L5.203776,31.875468 C4.87792,31.95662 4.5376,31.9995 4.1864,31.9995 C1.8744,31.9995 0.000400000001,30.1295 0.000400000001,27.8225 L0.000400000001,27.8225 L0.0014,27.7045 C0.0024,27.6715 0.0034,27.6405 0.0054,27.6095 L0.0054,27.6095 C0.0074,27.5725 0.0094,27.5425 0.0114,27.5135 C0.0114,27.5055 0.0124,27.4985 0.0134,27.4925 C0.0154,27.4605 0.0184,27.4295 0.0214,27.3995 L0.0214,27.3995 L0.0224,27.3855 C0.0254,27.3585 0.0284,27.3305 0.0324,27.3025 C0.0334,27.2955 0.0334,27.2895 0.0344,27.2825 C0.0384,27.2515 0.0424,27.2215 0.0474,27.1915 C0.0484,27.1855 0.0494,27.1805 0.0504,27.1745 C0.0544,27.1485 0.0584,27.1225 0.0634,27.0955 C0.0644,27.0885 0.0654,27.0825 0.0664,27.0765 C0.0714,27.0465 0.0774,27.0175 0.0834,26.9875 C0.0844,26.9815 0.0864,26.9745 0.0874,26.9685 C0.0934,26.9425 0.0984,26.9155 0.1044,26.8905 L0.1044,26.8905 L0.1084,26.8735 C0.1154,26.8445 0.1224,26.8155 0.1294,26.7865 L0.1294,26.7865 L0.1344,26.7665 C0.1424,26.7405 0.1484,26.7135 0.1564,26.6875 C0.1574,26.6835 0.1584,26.6795 0.1594,26.6755 C0.1674,26.6465 0.1764,26.6185 0.1854,26.5885 L0.1854,26.5885 L0.1914,26.5695 C0.2004,26.5415 0.2084,26.5145 0.2184,26.4875 C0.2194,26.4855 0.2194,26.4835 0.2204,26.4815 C0.2294,26.4535 0.2404,26.4245 0.2504,26.3965 L0.2504,26.3965 L0.2574,26.3755 L0.2904,26.2905 C0.3024,26.2615 0.3124,26.2345 0.3244,26.2065 C0.3274,26.2005 0.3304,26.1945 0.3334,26.1875 C0.3444,26.1605 0.3564,26.1325 0.3684,26.1055 L0.3684,26.1055 L0.3734,26.0965 C0.3844,26.0715 0.3964,26.0465 0.4074,26.0225 C0.4104,26.0155 0.4134,26.0095 0.4164,26.0035 L0.4164,26.0035 L0.4594,25.917625 L0.4594,25.917625 C0.4744,25.8885 0.4864,25.8655 0.4994,25.8415 C0.5024,25.8355 0.5054,25.8305 0.5084,25.8255 L0.5279,25.7905 L0.5279,25.7905 L0.5474,25.7555 L0.5524,25.7465 L0.5564,25.7395 L0.5654,25.7235 L0.7754,25.3615 L7.3994,13.9105 L14.2304,2.1025 C14.9524,0.8465 16.3104,-0.0005 17.8654,-0.0005 Z"/>
</svg>
