<svg xmlns="http://www.w3.org/2000/svg" viewBox="0 0 24 24" width="24" height="24" color="#4FB8B2" fill="none">
  <path d="M16.8915 4.08813C18.2403 3.49725 19.4856 3.79825 20.576 4.10277C21.0331 4.22965 21.5453 4.37147 21.8602 4.59887C22.352 4.95409 22.6735 5.50193 22.7401 6.1057C22.7903 6.56249 22.6462 7.02192 22.534 7.45922C22.2557 8.54493 21.8943 9.76593 20.6971 10.6262C20.2474 10.9494 19.5542 11.3051 18.9999 11.5715C18.431 11.8449 17.9473 12.0532 17.8817 12.0813L10.6746 15.177C9.82553 15.5409 9.63675 15.6409 9.51155 15.7873C8.92885 16.4689 8.93889 17.6069 8.7264 18.4358C8.61945 18.8524 8.3216 19.3096 7.9803 19.6418C7.66191 19.9516 7.08182 20.3649 6.3885 20.2209C5.67458 20.0725 5.44335 19.4145 5.36409 18.7775L4.87581 15.7141C4.84559 15.5251 4.83012 15.4305 4.78304 15.3498C4.73595 15.2691 4.66114 15.2094 4.51155 15.09L2.06135 13.1359C1.54541 12.7522 1.07952 12.2239 1.31038 11.5276C1.5345 10.8517 2.19492 10.5639 2.61995 10.4485C3.08091 10.3233 3.62661 10.2979 4.03987 10.4133C4.87934 10.6478 5.86879 11.2252 6.76643 11.0666C6.96048 11.0323 7.14368 10.921 7.88655 10.3782L14.2069 5.76781C14.2634 5.72648 14.6885 5.41666 15.2137 5.06664C15.7248 4.72602 16.3832 4.31076 16.8915 4.08813Z" fill="#4FB8B2"></path>
  <path opacity="0.4" d="M17.1172 13.7702C17.3746 13.6597 17.5033 13.6046 17.5938 13.6657C17.684 13.7269 17.6812 13.8672 17.6748 14.1472L17.5713 18.7272C17.5576 19.3341 17.4466 19.8838 17.1572 20.3718C16.8675 20.8603 16.442 21.2143 15.9307 21.5075C15.6361 21.6764 15.1807 21.8591 14.7002 21.6716C14.2189 21.4836 14.0027 21.0376 13.8955 20.6921L12.6465 16.6647C12.5198 16.256 12.4567 16.0509 12.5371 15.8766C12.6176 15.7027 12.8143 15.6186 13.207 15.4499L17.1172 13.7702ZM6.70708 2.24974C7.29567 2.24462 7.84922 2.43079 8.40727 2.73704L12.3252 4.88743C12.5734 5.02361 12.698 5.09225 12.7051 5.20188C12.7121 5.3114 12.5974 5.39472 12.3692 5.56125L8.87114 8.11399C8.53165 8.36167 8.36118 8.48505 8.1729 8.4675C7.98481 8.44977 7.84051 8.29693 7.55278 7.99094L4.72661 4.98509C4.47036 4.7086 4.18688 4.28905 4.26469 3.76926C4.34266 3.24855 4.73673 2.93773 5.04301 2.76048C5.5765 2.45189 6.11738 2.25488 6.70708 2.24974Z" fill="#4FB8B2"></path>
</svg>
