<svg width="512" height="512" viewBox="0 0 512 512" fill="none" xmlns="http://www.w3.org/2000/svg">
  <circle cx="256" cy="256" r="256" fill="#0a0a0f"/>
  <circle cx="256" cy="256" r="200" stroke="#7c3aed" stroke-width="2" fill="none" opacity="0.3" stroke-dasharray="10 10"/>
  
  <!-- Server 1 -->
  <rect x="128" y="160" width="256" height="48" rx="12" fill="#7c3aed" opacity="0.9"/>
  <circle cx="160" cy="184" r="8" fill="#a7f3d0"/>
  <circle cx="192" cy="184" r="8" fill="#a7f3d0"/>
  <rect x="224" y="180" width="128" height="8" rx="4" fill="#a78bfa" opacity="0.5"/>
  
  <!-- Server 2 -->
  <rect x="128" y="232" width="256" height="48" rx="12" fill="#8b5cf6" opacity="0.7"/>
  <circle cx="160" cy="256" r="8" fill="#a7f3d0"/>
  <circle cx="192" cy="256" r="8" fill="#a7f3d0"/>
  <rect x="224" y="252" width="128" height="8" rx="4" fill="#a78bfa" opacity="0.4"/>
  
  <!-- Server 3 -->
  <rect x="128" y="304" width="256" height="48" rx="12" fill="#a78bfa" opacity="0.5"/>
  <circle cx="160" cy="328" r="8" fill="#a7f3d0"/>
  <circle cx="192" cy="328" r="8" fill="#a7f3d0"/>
  <rect x="224" y="324" width="128" height="8" rx="4" fill="#a78bfa" opacity="0.3"/>
  
  <!-- Connecting lines -->
  <path d="M256 120 L256 160 M256 208 L256 232 M256 280 L256 304 M256 352 L256 392" stroke="#7c3aed" stroke-width="4" opacity="0.6"/>
  <circle cx="256" cy="120" r="8" fill="#7c3aed"/>
  <circle cx="256" cy="392" r="8" fill="#7c3aed"/>
</svg>
