<svg xmlns="http://www.w3.org/2000/svg" fill="none" viewBox="0 0 600 600">
  <path fill="#FF5000" d="M543.8 133.7a56 56 0 0 0-49 28.8l-1.2 2.4-44 86.7-55.9 110 36.6 71.9 2.1 4c5.6 9.8 14 18 24.4 23a58 58 0 0 0 24.4-23l2-4 109.5-215.6 2.6-5.2a56.3 56.3 0 0 0-51.5-79M206 238.2l-36.3-71.7-2.1-4c-5.6-9.8-14-18-24.4-23a58 58 0 0 0-24.4 23l-1.8 4L7.5 382.1l-2.6 5.2a56.4 56.4 0 0 0 100.6 50.2l1.1-2.4 44.1-86.7 55.6-110z"/>
  <path fill="url(#namecheap-a)" d="M543.8 133.7a56 56 0 0 0-49 28.8l-1.2 2.4-44 86.7-55.9 110 36.6 71.9 2.1 4c5.6 9.8 14 18 24.4 23a58 58 0 0 0 24.4-23l2-4 109.5-215.6 2.6-5.2a56.3 56.3 0 0 0-51.5-79"/>
  <path fill="url(#namecheap-b)" d="M56.3 466.3a56 56 0 0 0 49-28.8l1.1-2.4 44-86.7 55.9-110-36.6-71.9-2.1-4c-5.6-9.8-14-18-24.4-23a58 58 0 0 0-24.4 23l-1.8 4L7.5 382.1l-2.8 5.4a56.4 56.4 0 0 0 51.6 78.8"/>
  <path fill="#FF8C44" d="m206 238.2-36.3-71.7-2.1-4c-5.6-9.8-14-18-24.4-23a57 57 0 0 1 24.6-5.8h76.9c21 .2 39.4 11.7 49 28.8l1.6 4L394 361.8l36.3 71.7 2.1 4c5.6 9.8 14 18 24.4 23a57 57 0 0 1-24.8 5.8h-76.5a57 57 0 0 1-49-28.8l-2-4z"/>
  <defs>
    <linearGradient id="namecheap-a" x1="3141.4" x2="26539.4" y1="31154" y2="11157.9" gradientUnits="userSpaceOnUse">
      <stop stop-color="#D4202C"/><stop offset="0" stop-color="#D82D2B"/><stop offset=".2" stop-color="#E25226" stop-opacity=".8"/><stop offset=".3" stop-color="#EB7123" stop-opacity=".7"/><stop offset=".5" stop-color="#F28920" stop-opacity=".5"/><stop offset=".6" stop-color="#F69A1E" stop-opacity=".4"/><stop offset=".8" stop-color="#F9A41D" stop-opacity=".2"/><stop offset="1" stop-color="#FAA71D" stop-opacity="0"/>
    </linearGradient>
    <linearGradient id="namecheap-b" x1="17866.3" x2="-5531.9" y1="1786.4" y2="21782.6" gradientUnits="userSpaceOnUse">
      <stop stop-color="#D4202C"/><stop offset="0" stop-color="#D82D2B"/><stop offset=".2" stop-color="#E25226" stop-opacity=".8"/><stop offset=".3" stop-color="#EB7123" stop-opacity=".7"/><stop offset=".5" stop-color="#F28920" stop-opacity=".5"/><stop offset=".6" stop-color="#F69A1E" stop-opacity=".4"/><stop offset=".8" stop-color="#F9A41D" stop-opacity=".2"/><stop offset="1" stop-color="#FAA71D" stop-opacity="0"/>
    </linearGradient>
  </defs>
</svg>
